<?xml version="1.0" standalone="no"?>
<!DOCTYPE svg PUBLIC "-//W3C//DTD SVG 20010904//EN"
 "http://www.w3.org/TR/2001/REC-SVG-20010904/DTD/svg10.dtd">
<svg version="1.0" xmlns="http://www.w3.org/2000/svg"
 width="128.000000pt" height="128.000000pt" viewBox="0 0 128.000000 128.000000"
 preserveAspectRatio="xMidYMid meet">

<g transform="translate(0.000000,128.000000) scale(0.100000,-0.100000)"
fill="#000000" stroke="none">
<path d="M154 1048 l-19 -23 23 19 c12 11 22 21 22 23 0 8 -8 2 -26 -19z"/>
<path d="M1128 1035 c17 -22 45 -65 61 -95 17 -30 31 -50 31 -44 0 17 -69 127
-97 154 -21 20 -20 18 5 -15z"/>
<path d="M85 949 c-4 -6 -5 -12 -2 -15 2 -3 7 2 10 11 7 17 1 20 -8 4z"/>
<path d="M97 787 c-16 -11 -17 -30 -15 -157 3 -121 5 -145 18 -145 12 0 16 17
18 78 l3 77 54 0 54 0 3 -77 c3 -70 5 -78 23 -78 19 0 20 8 23 142 3 171 2
173 -97 173 -38 0 -75 -5 -84 -13z m133 -72 l0 -35 -55 0 -55 0 0 35 0 35 55
0 55 0 0 -35z"/>
<path d="M648 789 c-10 -5 -18 -22 -18 -36 0 -15 -8 -35 -17 -46 -17 -18 -17
-19 0 -32 14 -10 17 -28 17 -104 0 -83 2 -92 18 -89 14 3 17 17 20 96 l3 92
28 0 c16 0 31 6 34 14 8 19 -1 26 -35 26 -23 0 -28 4 -28 25 0 21 5 25 28 25
35 0 45 9 31 27 -13 15 -57 17 -81 2z"/>
<path d="M327 783 c-4 -3 -7 -71 -7 -150 0 -122 2 -145 16 -150 9 -3 20 0 25
8 10 16 12 259 3 283 -6 16 -26 21 -37 9z"/>
<path d="M427 784 c-4 -4 -7 -19 -7 -32 0 -14 -8 -34 -17 -45 -17 -18 -17 -19
0 -32 14 -10 17 -28 17 -92 0 -89 8 -103 57 -103 26 0 33 4 33 20 0 15 -7 20
-25 20 -24 0 -25 2 -25 74 0 70 1 75 23 78 28 4 29 32 0 36 -17 3 -23 11 -25
39 -3 35 -17 51 -31 37z"/>
<path d="M535 760 c-4 -7 -3 -16 3 -22 14 -14 45 -2 40 15 -6 16 -34 21 -43 7z"/>
<path d="M766 755 c-3 -9 1 -18 10 -22 19 -7 39 11 30 26 -10 16 -33 13 -40
-4z"/>
<path d="M535 698 c-3 -8 -4 -59 -3 -114 3 -91 5 -99 23 -99 19 0 20 7 20 110
0 97 -2 110 -18 113 -9 2 -19 -3 -22 -10z"/>
<path d="M766 695 c-9 -25 -7 -188 3 -204 5 -8 16 -11 25 -8 25 10 19 220 -5
225 -9 2 -19 -4 -23 -13z"/>
<path d="M862 698 c-19 -19 -16 -182 4 -203 22 -22 139 -18 139 5 0 11 -14 16
-52 18 l-53 3 0 74 0 74 53 3 c38 2 52 7 52 18 0 20 -124 27 -143 8z"/>
<path d="M1052 698 c-15 -15 -16 -171 -2 -199 9 -15 22 -19 68 -19 32 0 63 5
70 12 8 8 12 47 12 109 0 79 -3 98 -16 103 -28 11 -120 6 -132 -6z m108 -104
l0 -75 -35 3 c-20 2 -35 6 -35 11 0 4 0 36 0 72 l0 65 35 0 35 0 0 -76z"/>
<path d="M70 364 c0 -6 7 -19 16 -30 14 -18 14 -18 3 6 -14 31 -19 36 -19 24z"/>
<path d="M1180 320 c-6 -11 -8 -20 -6 -20 3 0 10 9 16 20 6 11 8 20 6 20 -3 0
-10 -9 -16 -20z"/>
<path d="M110 291 c5 -11 15 -23 21 -27 6 -3 3 5 -6 20 -20 30 -30 35 -15 7z"/>
<path d="M1124 238 l-19 -23 23 19 c21 18 27 26 19 26 -2 0 -12 -10 -23 -22z"/>
<path d="M155 230 c10 -11 20 -20 23 -20 3 0 -3 9 -13 20 -10 11 -20 20 -23
20 -3 0 3 -9 13 -20z"/>
</g>
</svg>
