<?xml version="1.0" standalone="no"?>
<!DOCTYPE svg PUBLIC "-//W3C//DTD SVG 20010904//EN"
 "http://www.w3.org/TR/2001/REC-SVG-20010904/DTD/svg10.dtd">
<svg version="1.0" xmlns="http://www.w3.org/2000/svg"
 width="640.000000pt" height="512.000000pt" viewBox="0 0 640.000000 512.000000"
 preserveAspectRatio="xMidYMid meet">

<g transform="translate(0.000000,512.000000) scale(0.100000,-0.100000)"
fill="#000000" stroke="none">
<path d="M3015 5114 c-379 -39 -651 -114 -954 -265 -261 -129 -478 -287 -683
-495 -400 -407 -636 -893 -720 -1479 -17 -118 -17 -512 0 -630 84 -592 328
-1089 733 -1494 405 -405 901 -648 1494 -733 137 -20 523 -16 665 5 393 61
757 199 1065 405 536 359 917 901 1070 1522 53 216 70 364 70 610 0 254 -18
400 -75 626 -49 193 -93 313 -185 499 -138 281 -260 451 -490 680 -229 230
-399 352 -680 490 -355 174 -678 252 -1075 260 -107 1 -213 1 -235 -1z m-25
-899 l0 -425 -54 0 c-107 0 -598 59 -613 73 -1 2 24 58 57 126 146 300 322
505 534 622 28 16 57 29 64 29 9 0 12 -92 12 -425z m483 404 c210 -107 405
-333 553 -644 l53 -110 -27 -7 c-82 -21 -483 -68 -583 -68 l-59 0 0 425 c0
288 3 425 10 425 6 0 30 -10 53 -21z m-1280 -121 c-4 -7 -25 -39 -46 -71 -56
-85 -151 -264 -193 -365 -21 -48 -41 -91 -45 -96 -7 -8 -269 66 -300 85 -17
10 27 59 159 170 114 97 194 154 320 230 99 60 119 69 105 47z m2089 -29 c99
-57 199 -125 294 -201 92 -74 224 -197 224 -209 0 -10 -246 -89 -285 -92 -23
-2 -30 7 -68 93 -59 133 -139 284 -190 360 -55 82 -59 90 -53 90 2 0 37 -19
78 -41z m-2868 -794 c36 -14 132 -45 213 -71 81 -25 149 -47 151 -48 1 -2 -6
-41 -17 -87 -41 -177 -75 -410 -87 -596 l-7 -103 -328 0 -328 0 5 38 c28 211
102 479 179 647 57 127 125 245 139 245 8 0 43 -11 80 -25z m3742 -121 c111
-222 186 -458 218 -686 l13 -98 -327 0 -326 0 -12 148 c-16 202 -56 451 -97
614 -7 25 -4 27 57 44 34 10 131 41 213 70 83 29 159 52 170 51 15 -2 37 -36
91 -143z m-2876 -109 c159 -29 374 -55 543 -67 l167 -12 0 -298 0 -298 -453 0
-453 0 4 43 c16 223 85 647 104 647 2 0 41 -7 88 -15z m1940 -22 c35 -127 90
-495 90 -605 l0 -48 -450 0 -450 0 0 298 0 298 168 12 c167 12 391 39 532 66
41 8 80 14 87 15 7 1 17 -16 23 -36z m-2546 -1179 c12 -194 64 -525 102 -661
5 -19 0 -23 -38 -33 -23 -7 -124 -39 -222 -71 -98 -33 -185 -58 -192 -55 -23
9 -163 309 -208 446 -38 117 -82 310 -100 443 l-5 37 328 0 328 0 7 -106z
m1316 -193 l0 -298 -112 -7 c-162 -10 -367 -33 -536 -61 -80 -13 -149 -22
-152 -20 -4 3 -10 19 -13 37 -3 18 -15 78 -27 133 -26 124 -60 387 -60 460 l0
55 450 0 450 0 0 -299z m1320 251 c0 -118 -77 -611 -99 -635 -4 -4 -72 4 -152
17 -163 28 -371 52 -536 62 l-113 7 0 298 0 299 450 0 450 0 0 -48z m1063 -49
c-17 -129 -63 -314 -107 -438 -42 -118 -173 -385 -193 -392 -7 -3 -73 15 -146
41 -72 25 -172 57 -220 72 -87 25 -89 26 -82 52 41 163 81 412 97 615 l12 147
326 0 327 0 -14 -97z m-2383 -1353 l0 -430 -50 25 c-221 112 -406 322 -556
630 l-64 130 25 6 c76 21 461 66 573 68 l72 1 0 -430z m675 415 c154 -16 352
-43 390 -54 l25 -6 -60 -123 c-151 -312 -338 -525 -557 -636 l-53 -26 0 430 0
430 58 0 c31 0 120 -7 197 -15z m-1706 -270 c51 -117 126 -257 197 -367 24
-38 41 -68 38 -68 -11 0 -165 92 -230 137 -135 93 -364 291 -364 314 0 5 53
25 118 45 64 19 128 40 142 44 14 5 31 8 38 7 7 -1 35 -51 61 -112z m2689 71
c78 -24 146 -46 149 -50 16 -16 -222 -226 -367 -323 -91 -60 -220 -136 -225
-131 -2 2 16 32 40 68 52 79 157 272 192 354 14 34 32 76 40 94 7 17 17 32 21
32 4 0 71 -20 150 -44z"/>
</g>
</svg>
